<svg width="176" height="137" viewBox="0 0 176 137" fill="none" xmlns="http://www.w3.org/2000/svg">
<path d="M71.5661 88.1577C23.5877 51.794 -6.8559 14.5684 2.25862 3.41001C7.72307 -3.27985 25.9156 0.844334 52.1709 14.7256C52.265 14.7743 52.3475 14.841 52.4137 14.9219C52.48 15.0027 52.5286 15.0962 52.557 15.1968C52.5853 15.2975 52.5927 15.4035 52.5788 15.5086C52.5649 15.6138 52.5299 15.7161 52.4758 15.8098C52.4218 15.9034 52.3498 15.9866 52.2638 16.0544C52.1779 16.1223 52.0798 16.1736 51.975 16.2053C51.8703 16.2371 51.761 16.2487 51.6534 16.2395C51.5458 16.2303 51.442 16.2006 51.3479 16.1518L51.3452 16.1504L51.3361 16.1456C26.6034 3.06971 8.28741 -1.43936 3.53568 4.37788C-4.70656 14.4685 26.9277 52.2469 72.6147 86.8739C118.302 121.501 163.862 142.23 172.105 132.139C176.876 126.298 167.942 110.131 148.788 89.9476C148.716 89.8721 148.659 89.7827 148.623 89.6846C148.587 89.5865 148.571 89.4816 148.577 89.3759C148.583 89.2702 148.61 89.1657 148.657 89.0686C148.704 88.9714 148.769 88.8833 148.85 88.8095C148.931 88.7357 149.025 88.6775 149.128 88.6383C149.23 88.5991 149.339 88.5797 149.447 88.5811C149.556 88.5825 149.662 88.6047 149.76 88.6465C149.858 88.6884 149.946 88.7489 150.018 88.8247L150.02 88.8266L150.024 88.8307C170.354 110.253 178.867 126.391 173.382 133.107C164.267 144.266 119.544 124.521 71.5661 88.1577Z" fill="white"/>
</svg>
