<svg width="204" height="100" viewBox="0 0 204 100" fill="none" xmlns="http://www.w3.org/2000/svg">
<path d="M110.734 74.3483C54.0103 98.4727 5.61418 106.797 0.555391 93.2995C-2.47755 85.2073 10.5606 71.291 36.3268 55.1199C36.4182 55.0614 36.5194 55.022 36.6246 55.0038C36.7298 54.9856 36.8369 54.9891 36.9398 55.0139C37.0427 55.0388 37.1395 55.0845 37.2244 55.1486C37.3094 55.2127 37.3809 55.2939 37.435 55.3875C37.4891 55.4811 37.5247 55.5852 37.5396 55.6941C37.5546 55.8029 37.5488 55.9143 37.5223 56.0218C37.4959 56.1293 37.4495 56.2308 37.3857 56.3206C37.3219 56.4105 37.242 56.4868 37.1506 56.5452L37.1479 56.5469L37.1389 56.5525C12.8673 71.786 -0.572124 85.6206 2.06517 92.6574C6.63986 104.863 56.1374 95.7675 110.152 72.7954C164.166 49.8232 205.934 20.104 201.36 7.89816C198.711 0.831843 179.914 0.687786 152.302 7.52289C152.199 7.54916 152.091 7.55406 151.987 7.53731C151.882 7.52057 151.782 7.48249 151.693 7.42528C151.603 7.36806 151.526 7.29283 151.465 7.20386C151.404 7.1149 151.361 7.01394 151.339 6.90677C151.316 6.79959 151.314 6.68829 151.332 6.57922C151.351 6.47014 151.39 6.36545 151.447 6.27109C151.505 6.17673 151.579 6.09456 151.666 6.02928C151.753 5.964 151.852 5.91687 151.955 5.89061L151.958 5.88995L151.963 5.88854C181.27 -1.36615 199.825 -0.867723 202.869 7.25602C207.928 20.7536 167.457 50.224 110.734 74.3483Z" fill="white"/>
</svg>
